<?xml version="1.0" encoding="utf-8"?>
<!-- Generator: Adobe Illustrator 24.3.0, SVG Export Plug-In . SVG Version: 6.00 Build 0)  -->
<svg xmlns="http://www.w3.org/2000/svg" xmlns:xlink="http://www.w3.org/1999/xlink" version="1.1" id="Layer_1" x="0px" y="0px" viewBox="0 0 512 512" enable-background="new 0 0 512 512" xml:space="preserve" width="100" height="100">
<g>
	<path d="M326.6,280.5l-160,160c-19.4,19.4-50.9,19.4-70.3,0s-19.4-50.9,0-70.2l74.7-74.7c4.2-4.2,4.2-10.9,0-15.1s-10.9-4.2-15.1,0   l-74.7,74.7c-27.7,27.7-27.7,72.7,0,100.4c27.7,27.7,72.7,27.7,100.4,0l160-160c19.4-19.4,50.9-19.4,70.3,0   c19.4,19.4,19.4,50.9,0,70.2l-128,128c-4.2,4.2-4.2,10.9,0,15.1c2.1,2.1,4.8,3.1,7.6,3.1c2.7,0,5.5-1,7.5-3.1l128-128   c27.7-27.7,27.7-72.7,0-100.4C399.3,252.8,354.3,252.8,326.6,280.5z"/>
	<path d="M187.9,284.9c2.1,2.1,4.8,3.1,7.6,3.1c2.7,0,5.5-1,7.5-3.1c4.2-4.2,4.2-10.9,0-15.1l-21.3-21.3c-4.2-4.2-10.9-4.2-15.1,0   c-4.2,4.2-4.2,10.9,0,15.1L187.9,284.9z"/>
	<path d="M219.9,274.2c2.1,2.1,4.8,3.1,7.6,3.1c2.7,0,5.5-1,7.5-3.1c4.2-4.2,4.2-10.9,0-15.1l-42.7-42.7c-4.2-4.2-10.9-4.2-15.1,0   c-4.2,4.2-4.2,10.9,0,15.1L219.9,274.2z"/>
	<path d="M251.9,263.5c2.1,2.1,4.8,3.1,7.6,3.1c2.7,0,5.5-1,7.5-3.1c4.2-4.2,4.2-10.9,0-15.1l-64-64c-4.2-4.2-10.9-4.2-15.1,0   c-4.2,4.2-4.2,10.9,0,15.1L251.9,263.5z"/>
	<path d="M448.4,88.5l-13.8-13.8l-28.9,28.9c-2.1,2.1-4.8,3.1-7.5,3.1s-5.5-1-7.6-3.1c-4.2-4.2-4.2-10.9,0-15.1l28.9-28.9l-6.3-6.3   l-28.9,28.9c-2.1,2.1-4.8,3.1-7.5,3.1s-5.5-1-7.6-3.1c-4.2-4.2-4.2-10.9,0-15.1l28.9-28.9l-6.3-6.3l-28.8,29   c-2.1,2.1-4.8,3.1-7.5,3.1s-5.5-1-7.6-3.1c-4.2-4.2-4.2-10.9,0-15.1l28.9-28.9L363,3.1c-2-2-4.7-3-7.7-3.1c-2.9,0-5.6,1.2-7.6,3.3   c-16.9,17.7-35.5,36.8-45,46.1l-3.7-3.7c-4.2-4.2-10.9-4.2-15.1,0L198.6,131c-2,2-3.1,4.7-3.1,7.6V160c0,2.8,1.1,5.5,3.1,7.6   l85.3,85.3c2,2,4.7,3.1,7.6,3.1h21.3c2.8,0,5.5-1.1,7.6-3.1l85.3-85.3c4.2-4.2,4.2-10.9,0-15.1l-3.1-3.1l45.8-45.8   C452.5,99.4,452.5,92.6,448.4,88.5z M352.4,146.2l-32,32c-2.1,2.1-4.8,3.1-7.6,3.1c-2.7,0-5.5-1-7.6-3.1l-8.4-8.4l-8.4,8.4   c-2.1,2.1-4.8,3.1-7.6,3.1c-2.7,0-5.5-1-7.6-3.1c-4.2-4.2-4.2-10.9,0-15.1l8.4-8.4l-8.4-8.5c-4.2-4.2-4.2-10.9,0-15.1l32-32   c4.2-4.2,10.9-4.2,15.1,0l32,32C356.5,135.3,356.5,142,352.4,146.2z"/>
	<rect x="300.883" y="126.691" transform="matrix(0.7071 -0.7071 0.7071 0.7071 -6.4069 261.8131)" width="23.9" height="23.9"/>
</g>
<desc>prise; prise; Réseau; Réseau; Câble; Câble;socket;socket;Réseau;Network;Câble;Cable</desc>
<rect fill-opacity="0" width="512" height="512"/>
</svg>
